<?xml version="1.0" encoding="utf-8"?>
<!-- Generator: Adobe Illustrator 16.0.0, SVG Export Plug-In . SVG Version: 6.00 Build 0)  -->
<!DOCTYPE svg PUBLIC "-//W3C//DTD SVG 1.1//EN" "http://www.w3.org/Graphics/SVG/1.1/DTD/svg11.dtd">
<svg version="1.1" id="Layer_1" xmlns="http://www.w3.org/2000/svg" xmlns:xlink="http://www.w3.org/1999/xlink" x="0px" y="0px"
	 width="90px" height="60px" viewBox="0 0 90 60" enable-background="new 0 0 90 60" xml:space="preserve">
<g>
	<path fill="#CB4642" d="M80.009,17.191c-4.116-4.725-10.464-7.754-17.579-7.754c-7.01,0-13.266,2.932-17.381,7.524
		C49.15,10.714,56.117,6.509,64.086,6.216c0.223,0.008,0.458,0.013,0.712,0.027C65.1,6.256,65.42,6.3,65.773,6.332
		c0.694,0.076,1.474,0.214,2.307,0.416c0.822,0.231,1.715,0.502,2.6,0.923c0.885,0.412,1.776,0.927,2.646,1.545
		c0.866,0.617,1.7,1.324,2.524,2.101c0.813,0.755,1.539,1.605,2.198,2.523c0.328,0.455,0.642,0.93,0.931,1.405
		c0.291,0.481,0.545,0.95,0.805,1.469C79.859,16.872,79.932,17.029,80.009,17.191"/>
	<path fill="#CB4642" d="M82.773,45.82c-4.363,4.887-10.717,7.963-17.787,7.963c-8.352,0-15.694-4.287-19.95-10.775
		c4.118,4.6,10.379,7.539,17.387,7.539c5.449,0,10.438-1.773,14.334-4.725h6.017V45.82z"/>
	<path fill="#CB4642" d="M88.809,29.993v0.1h-4.768c-0.01-0.193-0.025-0.41-0.032-0.657c-0.057-1.021-0.127-2.48-0.34-4.245
		c-0.224-1.753-0.583-3.826-1.356-5.933c-0.385-1.06-0.86-2.105-1.449-3.14c-0.275-0.483-0.598-1.005-0.932-1.487
		c-0.328-0.492-0.681-0.968-1.057-1.428c-0.736-0.918-1.57-1.786-2.466-2.528c-0.869-0.736-1.788-1.43-2.72-2.014
		c-0.934-0.589-1.891-1.068-2.828-1.439c-0.932-0.382-1.856-0.61-2.713-0.798c-0.131-0.024-0.27-0.045-0.398-0.066
		C79.607,7.728,88.809,17.784,88.809,29.993"/>
	<path fill="#343334" d="M20.436,30.605c-0.626-1.039-1.627-1.906-3.007-2.607c-1.373-0.706-3.655-1.396-6.834-2.083
		c-1.287-0.267-2.101-0.562-2.447-0.864C7.8,24.746,7.62,24.41,7.62,24.033c0-0.51,0.213-0.947,0.643-1.307
		c0.428-0.358,1.067-0.538,1.912-0.538c1.026,0,1.832,0.239,2.419,0.721c0.581,0.483,0.967,1.257,1.147,2.316l6.865-0.404
		c-0.303-2.441-1.244-4.222-2.823-5.343c-1.58-1.121-3.874-1.681-6.886-1.681c-2.452,0-4.385,0.314-5.789,0.929
		c-1.412,0.613-2.468,1.463-3.167,2.537c-0.701,1.077-1.054,2.22-1.054,3.431c0,1.843,0.688,3.356,2.062,4.549
		c1.356,1.189,3.635,2.144,6.826,2.858c1.954,0.428,3.196,0.887,3.729,1.366c0.538,0.48,0.803,1.025,0.803,1.642
		c0,0.639-0.279,1.209-0.844,1.692c-0.56,0.486-1.349,0.625-2.386,0.625c-1.39,0-2.48-0.37-3.228-1.325
		c-0.465-0.584-0.765-1.443-0.919-2.566L0,33.967c0.207,2.373,1.082,4.334,2.621,5.879c1.545,1.543,4.318,2.314,8.322,2.314
		c2.282,0,4.176-0.326,5.675-0.99c1.497-0.656,2.665-1.621,3.5-2.9c0.835-1.272,1.256-2.664,1.256-4.178
		C21.376,32.807,21.062,31.646,20.436,30.605"/>
	<path fill="#343334" d="M43.824,34.121c0,1.48-0.398,2.838-1.202,4.096c-0.018,0.025-0.035,0.055-0.052,0.082
		c-0.128,0.197-0.265,0.385-0.416,0.564c-0.789,1.002-1.824,1.781-3.088,2.338c-1.497,0.658-3.389,0.984-5.673,0.984
		c-4.011,0-6.779-0.769-8.325-2.316c-1.542-1.539-2.414-3.5-2.62-5.877l6.925-0.434c0.149,1.123,0.459,1.979,0.917,2.571
		c0.751,0.949,1.824,1.32,3.222,1.32c1.033,0,1.831-0.138,2.396-0.625c0.557-0.488,0.846-1.052,0.846-1.693
		c0-0.612-0.271-1.159-0.806-1.641c-0.536-0.482-1.774-0.938-3.726-1.369c-3.194-0.717-5.473-1.672-6.83-2.858
		c-1.369-1.188-2.058-2.705-2.058-4.546c0-1.21,0.351-2.354,1.054-3.431c0.703-1.078,1.754-1.922,3.166-2.541
		c1.413-0.62,3.341-0.921,5.793-0.921c3.011,0,5.31,0.558,6.887,1.676c0.715,0.505,1.302,1.151,1.752,1.933
		c0.164,0.274,0.309,0.571,0.433,0.882c0.308,0.742,0.519,1.587,0.63,2.526l-1.35,0.077l-1.072,0.065l-4.438,0.258
		c-0.185-1.06-0.565-1.83-1.144-2.316c-0.587-0.476-1.394-0.721-2.417-0.721c-0.849,0-1.483,0.18-1.914,0.541
		c-0.429,0.355-0.643,0.792-0.643,1.312c0,0.369,0.17,0.705,0.526,1.006c0.343,0.313,1.156,0.602,2.446,0.867
		c3.178,0.689,5.458,1.384,6.834,2.084c0.059,0.03,0.116,0.061,0.171,0.091c0.415,0.222,0.797,0.458,1.14,0.711
		c0.721,0.533,1.286,1.133,1.695,1.806C43.51,31.668,43.824,32.83,43.824,34.121"/>
	<polygon fill="#343334" points="76.701,18.229 71.514,41.781 64.365,41.781 60.234,26.951 56.124,41.781 48.984,41.781 
		43.896,18.918 43.896,18.916 43.803,18.491 43.743,18.229 50.656,18.229 53.145,31.412 56.791,18.229 63.675,18.229 67.331,31.395 
		69.826,18.229 	"/>
	<rect x="84.012" y="31.332" fill="#343334" width="6.002" height="6.004"/>
	<rect x="76.766" y="31.332" fill="#7A7A7A" width="6.004" height="6.004"/>
	<rect x="84.012" y="38.576" fill="#CB4642" width="6.002" height="6.006"/>
	<rect x="76.766" y="38.576" fill="#ABABAB" width="6.004" height="6.006"/>
</g>
</svg>
