<svg xmlns="http://www.w3.org/2000/svg" width="34" height="14" viewBox="0 0 34 14">
  <path d="M31.3759375,12.764593 C32.5585547,11.0419367 33.2489844,8.84760076 33.2489844,6.52338201 C33.2489844,4.19232733 32.5517187,1.99799139 31.3759375,0.275335139 C31.1776953,-0.0117742359 30.8358984,-0.0801336109 30.5761328,0.0976007641 C30.3026953,0.275335139 30.2616797,0.623967952 30.4667578,0.924749202 C31.4989844,2.46283514 32.1415625,4.43158514 32.1415625,6.52338201 C32.1415625,8.60834295 31.5194922,10.5976008 30.4599219,12.1220148 C30.2616797,12.4159601 30.3026953,12.757757 30.5761328,12.9423273 C30.8358984,13.1200617 31.1776953,13.0448664 31.3759375,12.764593 Z M28.7030859,11.0009211 C29.5644141,9.79096014 30.0566016,8.19135076 30.0566016,6.52338201 C30.0566016,4.84857733 29.57125,3.24213201 28.7030859,2.03900701 C28.5048437,1.76556951 28.1767187,1.69721014 27.9032812,1.87494451 C27.6366797,2.05267889 27.5956641,2.4013117 27.8007422,2.70209295 C28.5048437,3.74115545 28.9355078,5.09467108 28.9355078,6.52338201 C28.9355078,7.94525701 28.5185156,9.31244451 27.8007422,10.3378351 C27.5956641,10.6386164 27.6366797,10.9872492 27.9032812,11.1649836 C28.1767187,11.342718 28.5116797,11.2743586 28.7030859,11.0009211 Z M26.0302344,9.25092108 C26.5497656,8.55365545 26.8573828,7.54877264 26.8573828,6.52338201 C26.8573828,5.49115545 26.5429297,4.49310858 26.0302344,3.78900701 C25.8388281,3.52240545 25.5038672,3.46771795 25.2577734,3.63178045 C24.9638281,3.83002264 24.9159766,4.18549139 25.1415625,4.49994451 C25.5107031,5.00580389 25.7362891,5.75775701 25.7362891,6.52338201 C25.7362891,7.28217108 25.5038672,8.0341242 25.1415625,8.54681951 C24.9228125,8.86127264 24.9638281,9.20306951 25.2577734,9.40814764 C25.5038672,9.57221014 25.8388281,9.51752264 26.0302344,9.25092108 Z"/>
  <path d="M6.37593749,12.764593 C7.55855468,11.0419367 8.24898437,8.84760076 8.24898437,6.52338201 C8.24898437,4.19232733 7.55171874,1.99799139 6.37593749,0.275335139 C6.1776953,-0.0117742359 5.83589843,-0.0801336109 5.5761328,0.0976007641 C5.3026953,0.275335139 5.26167968,0.623967952 5.4667578,0.924749202 C6.49898437,2.46283514 7.14156249,4.43158514 7.14156249,6.52338201 C7.14156249,8.60834295 6.51949218,10.5976008 5.45992187,12.1220148 C5.26167968,12.4159601 5.3026953,12.757757 5.5761328,12.9423273 C5.83589843,13.1200617 6.1776953,13.0448664 6.37593749,12.764593 Z M3.70308593,11.0009211 C4.56441405,9.79096014 5.05660155,8.19135076 5.05660155,6.52338201 C5.05660155,4.84857733 4.57124999,3.24213201 3.70308593,2.03900701 C3.50484374,1.76556951 3.17671874,1.69721014 2.90328124,1.87494451 C2.63667968,2.05267889 2.59566405,2.4013117 2.80074218,2.70209295 C3.50484374,3.74115545 3.9355078,5.09467108 3.9355078,6.52338201 C3.9355078,7.94525701 3.51851562,9.31244451 2.80074218,10.3378351 C2.59566405,10.6386164 2.63667968,10.9872492 2.90328124,11.1649836 C3.17671874,11.342718 3.51167968,11.2743586 3.70308593,11.0009211 Z M1.03023437,9.25092108 C1.54976562,8.55365545 1.8573828,7.54877264 1.8573828,6.52338201 C1.8573828,5.49115545 1.54292968,4.49310858 1.03023437,3.78900701 C0.838828117,3.52240545 0.50386718,3.46771795 0.25777343,3.63178045 C-0.036171883,3.83002264 -0.0840234455,4.18549139 0.141562492,4.49994451 C0.510703117,5.00580389 0.736289055,5.75775701 0.736289055,6.52338201 C0.736289055,7.28217108 0.50386718,8.0341242 0.141562492,8.54681951 C-0.077187508,8.86127264 -0.036171883,9.20306951 0.25777343,9.40814764 C0.50386718,9.57221014 0.838828117,9.51752264 1.03023437,9.25092108 Z" transform="rotate(-180 4.124 6.52)"/>
  <path d="M16.6308594,13.2548828 C20.2539062,13.2548828 23.2548828,10.2539062 23.2548828,6.62402344 C23.2548828,3.00097656 20.2470703,0 16.6240234,0 C13.0009766,0 10,3.00097656 10,6.62402344 C10,10.2539062 13.0078125,13.2548828 16.6308594,13.2548828 Z M15.5234375,8.97558594 L14.9150391,8.97558594 C14.6142578,8.97558594 14.4775391,8.81152344 14.4775391,8.56542969 L14.4775391,4.68945312 C14.4775391,4.44335938 14.6142578,4.27929688 14.9150391,4.27929688 L15.5234375,4.27929688 C15.8173828,4.27929688 15.9541016,4.44335938 15.9541016,4.68945312 L15.9541016,8.56542969 C15.9541016,8.81152344 15.8173828,8.97558594 15.5234375,8.97558594 Z M18.3398438,8.97558594 L17.7382812,8.97558594 C17.4375,8.97558594 17.2939453,8.81152344 17.2939453,8.56542969 L17.2939453,4.68945312 C17.2939453,4.44335938 17.4375,4.27929688 17.7382812,4.27929688 L18.3398438,4.27929688 C18.6337891,4.27929688 18.7773438,4.44335938 18.7773438,4.68945312 L18.7773438,8.56542969 C18.7773438,8.81152344 18.6337891,8.97558594 18.3398438,8.97558594 Z"/>
</svg>
