<svg xmlns="http://www.w3.org/2000/svg" width="33" height="14" viewBox="0 0 33 14">
  <path d="M30.3759375,12.764593 C31.5585547,11.0419367 32.2489844,8.84760076 32.2489844,6.52338201 C32.2489844,4.19232733 31.5517187,1.99799139 30.3759375,0.275335139 C30.1776953,-0.0117742359 29.8358984,-0.0801336109 29.5761328,0.0976007641 C29.3026953,0.275335139 29.2616797,0.623967952 29.4667578,0.924749202 C30.4989844,2.46283514 31.1415625,4.43158514 31.1415625,6.52338201 C31.1415625,8.60834295 30.5194922,10.5976008 29.4599219,12.1220148 C29.2616797,12.4159601 29.3026953,12.757757 29.5761328,12.9423273 C29.8358984,13.1200617 30.1776953,13.0448664 30.3759375,12.764593 Z M27.7030859,11.0009211 C28.5644141,9.79096014 29.0566016,8.19135076 29.0566016,6.52338201 C29.0566016,4.84857733 28.57125,3.24213201 27.7030859,2.03900701 C27.5048437,1.76556951 27.1767187,1.69721014 26.9032812,1.87494451 C26.6366797,2.05267889 26.5956641,2.4013117 26.8007422,2.70209295 C27.5048437,3.74115545 27.9355078,5.09467108 27.9355078,6.52338201 C27.9355078,7.94525701 27.5185156,9.31244451 26.8007422,10.3378351 C26.5956641,10.6386164 26.6366797,10.9872492 26.9032812,11.1649836 C27.1767187,11.342718 27.5116797,11.2743586 27.7030859,11.0009211 Z M25.0302344,9.25092108 C25.5497656,8.55365545 25.8573828,7.54877264 25.8573828,6.52338201 C25.8573828,5.49115545 25.5429297,4.49310858 25.0302344,3.78900701 C24.8388281,3.52240545 24.5038672,3.46771795 24.2577734,3.63178045 C23.9638281,3.83002264 23.9159766,4.18549139 24.1415625,4.49994451 C24.5107031,5.00580389 24.7362891,5.75775701 24.7362891,6.52338201 C24.7362891,7.28217108 24.5038672,8.0341242 24.1415625,8.54681951 C23.9228125,8.86127264 23.9638281,9.20306951 24.2577734,9.40814764 C24.5038672,9.57221014 24.8388281,9.51752264 25.0302344,9.25092108 Z"/>
  <path d="M6.37593749,12.764593 C7.55855468,11.0419367 8.24898437,8.84760076 8.24898437,6.52338201 C8.24898437,4.19232733 7.55171874,1.99799139 6.37593749,0.275335139 C6.1776953,-0.0117742359 5.83589843,-0.0801336109 5.5761328,0.0976007641 C5.3026953,0.275335139 5.26167968,0.623967952 5.4667578,0.924749202 C6.49898437,2.46283514 7.14156249,4.43158514 7.14156249,6.52338201 C7.14156249,8.60834295 6.51949218,10.5976008 5.45992187,12.1220148 C5.26167968,12.4159601 5.3026953,12.757757 5.5761328,12.9423273 C5.83589843,13.1200617 6.1776953,13.0448664 6.37593749,12.764593 Z M3.70308593,11.0009211 C4.56441405,9.79096014 5.05660155,8.19135076 5.05660155,6.52338201 C5.05660155,4.84857733 4.57124999,3.24213201 3.70308593,2.03900701 C3.50484374,1.76556951 3.17671874,1.69721014 2.90328124,1.87494451 C2.63667968,2.05267889 2.59566405,2.4013117 2.80074218,2.70209295 C3.50484374,3.74115545 3.9355078,5.09467108 3.9355078,6.52338201 C3.9355078,7.94525701 3.51851562,9.31244451 2.80074218,10.3378351 C2.59566405,10.6386164 2.63667968,10.9872492 2.90328124,11.1649836 C3.17671874,11.342718 3.51167968,11.2743586 3.70308593,11.0009211 Z M1.03023437,9.25092108 C1.54976562,8.55365545 1.8573828,7.54877264 1.8573828,6.52338201 C1.8573828,5.49115545 1.54292968,4.49310858 1.03023437,3.78900701 C0.838828117,3.52240545 0.50386718,3.46771795 0.25777343,3.63178045 C-0.036171883,3.83002264 -0.0840234455,4.18549139 0.141562492,4.49994451 C0.510703117,5.00580389 0.736289055,5.75775701 0.736289055,6.52338201 C0.736289055,7.28217108 0.50386718,8.0341242 0.141562492,8.54681951 C-0.077187508,8.86127264 -0.036171883,9.20306951 0.25777343,9.40814764 C0.50386718,9.57221014 0.838828117,9.51752264 1.03023437,9.25092108 Z" transform="rotate(-180 4.124 6.52)"/>
  <path d="M16.1279102,13.2548828 C19.750957,13.2548828 22.7519336,10.2539062 22.7519336,6.62402344 C22.7519336,3.00097656 19.7441211,0 16.1210742,0 C12.4980273,0 9.49705078,3.00097656 9.49705078,6.62402344 C9.49705078,10.2539062 12.5048633,13.2548828 16.1279102,13.2548828 Z M14.3095508,8.85253906 L14.3095508,4.40234375 C14.3095508,4.09472656 14.6650195,3.96484375 14.945293,4.12890625 L18.5888477,6.2890625 C18.8554492,6.43945312 18.8622852,6.81542969 18.5888477,6.97949219 L14.945293,9.12597656 C14.6513477,9.30371094 14.3095508,9.16015625 14.3095508,8.85253906 Z"/>
</svg>
