<?xml version="1.0" encoding="UTF-8" standalone="no"?>
<svg
  width="24"
  height="24"
  viewBox="0 0 24 24"
  fill="none"
  xmlns="http://www.w3.org/2000/svg"
>
  <path
    d="M8.625 1.125V3H10.875V1.125C10.875 0.515625 11.3438 0 12 0C12.6094 0 13.125 0.515625 13.125 1.125V3H15.375V1.125C15.375 0.515625 15.8438 0 16.5 0C17.1094 0 17.625 0.515625 17.625 1.125V3H18C19.6406 3 21 4.35938 21 6V6.375H22.875C23.4844 6.375 24 6.89062 24 7.5C24 8.15625 23.4844 8.625 22.875 8.625H21V10.875H22.875C23.4844 10.875 24 11.3906 24 12C24 12.6562 23.4844 13.125 22.875 13.125H21V15.375H22.875C23.4844 15.375 24 15.8906 24 16.5C24 17.1562 23.4844 17.625 22.875 17.625H21V18C21 19.6875 19.6406 21 18 21H17.625V22.875C17.625 23.5312 17.1094 24 16.5 24C15.8438 24 15.375 23.5312 15.375 22.875V21H13.125V22.875C13.125 23.5312 12.6094 24 12 24C11.3438 24 10.875 23.5312 10.875 22.875V21H8.625V22.875C8.625 23.5312 8.10938 24 7.5 24C6.84375 24 6.375 23.5312 6.375 22.875V21H6C4.3125 21 3 19.6875 3 18V17.625H1.125C0.46875 17.625 0 17.1562 0 16.5C0 15.8906 0.46875 15.375 1.125 15.375H3V13.125H1.125C0.46875 13.125 0 12.6562 0 12C0 11.3906 0.46875 10.875 1.125 10.875H3V8.625H1.125C0.46875 8.625 0 8.15625 0 7.5C0 6.89062 0.46875 6.375 1.125 6.375H3V6C3 4.35938 4.3125 3 6 3H6.375V1.125C6.375 0.515625 6.84375 0 7.5 0C8.10938 0 8.625 0.515625 8.625 1.125ZM5.25 6V18C5.25 18.4219 5.57812 18.75 6 18.75H18C18.375 18.75 18.75 18.4219 18.75 18V6C18.75 5.625 18.375 5.25 18 5.25H6C5.57812 5.25 5.25 5.625 5.25 6ZM15.75 8.0625C16.2656 8.0625 16.6875 8.48438 16.6875 9V15C16.6875 15.5156 16.2656 15.9375 15.75 15.9375C15.2344 15.9375 14.8125 15.5156 14.8125 15V9C14.8125 8.48438 15.2344 8.0625 15.75 8.0625ZM10.9688 8.625L13.5938 14.625C13.7812 15.1406 13.5938 15.6562 13.125 15.8906C12.6094 16.0781 12.0938 15.8906 11.8594 15.375L11.625 14.8125H8.57812L8.34375 15.375C8.10938 15.8906 7.59375 16.0781 7.125 15.8906C6.60938 15.6562 6.42188 15.1406 6.60938 14.625L9.23438 8.625C9.375 8.29688 9.75 8.0625 10.125 8.0625C10.4531 8.0625 10.8281 8.29688 10.9688 8.625ZM10.125 11.3438L9.42188 12.9375H10.7812L10.125 11.3438Z"
    fill="#CC4141"
  />
</svg>
