<?xml version="1.0" encoding="UTF-8" standalone="no"?>
<svg
  width="24"
  height="24"
  viewBox="0 0 24 24"
  fill="none"
  xmlns="http://www.w3.org/2000/svg"
>
  <path
    d="M11.9531 5.67188L11.5781 4.96875C11.2969 4.5 10.6875 4.35938 10.2656 4.59375C9.79688 4.875 9.65625 5.4375 9.89062 5.90625L10.875 7.59375L7.73438 13.0312H5.29688C4.78125 13.0312 4.35938 13.4531 4.35938 13.9688C4.35938 14.4844 4.78125 14.9062 5.29688 14.9062H14.0156C14.4375 14.1562 13.875 13.0312 12.9375 13.0312H9.9375L14.0625 5.90625C14.3438 5.4375 14.1562 4.875 13.6875 4.59375C13.2656 4.35938 12.6562 4.5 12.4219 4.96875L11.9531 5.67188ZM8.29688 15.8906C7.78125 15.3281 7.17188 15.1406 6.375 15.375L5.71875 16.5469C5.4375 17.0156 5.57812 17.5781 6.04688 17.8594C6.51562 18.0938 7.125 17.9531 7.35938 17.4844L8.29688 15.8906ZM16.2188 13.0312C14.9531 10.8281 14.0156 9.23438 13.4062 8.15625C12.7969 8.625 12.2344 9.98438 13.0312 11.3906C13.8281 12.75 15 14.7656 16.5938 17.4844C16.8281 17.9531 17.4375 18.0938 17.9062 17.8594C18.3281 17.5781 18.5156 17.0156 18.2344 16.5469L17.2969 14.9062H18.7031C19.2188 14.9062 19.6406 14.4844 19.6406 13.9688C19.6406 13.4531 19.2188 13.0312 18.7031 13.0312H16.2188ZM12 0.375C18.4219 0.375 23.625 5.57812 23.625 12C23.625 18.4219 18.4219 23.625 12 23.625C5.57812 23.625 0.375 18.4219 0.375 12C0.375 5.57812 5.57812 0.375 12 0.375ZM22.125 12C22.125 6.42188 17.5312 1.875 12 1.875C6.375 1.875 1.875 6.46875 1.875 12C1.875 17.625 6.42188 22.125 12 22.125C17.5781 22.125 22.125 17.5781 22.125 12Z"
    fill="#CC4141"
  />
</svg>
