<?xml version="1.0" encoding="UTF-8" standalone="no"?>
<svg
  width="30"
  height="22"
  viewBox="0 0 30 22"
  fill="none"
  xmlns="http://www.w3.org/2000/svg"
>
  <path
    d="M19.2188 5.32812C18.3281 5.70312 17.25 5.46875 16.5938 4.71875C15.5625 3.54688 14.0625 2.75 12.375 2.75C9.23438 2.75 6.75 5.28125 6.75 8.375V8.42188C6.75 9.35938 6.14062 10.2031 5.25 10.5312C3.46875 11.1406 2.25 12.8281 2.25 14.75C2.25 17.2344 4.26562 19.25 6.75 19.25H23.625H23.7656C23.7656 19.25 23.8125 19.25 23.8594 19.25C26.0156 19.1562 27.75 17.3281 27.75 15.125C27.75 13.4375 26.7188 11.9844 25.2656 11.375C24.3281 10.9531 23.7656 9.96875 23.9531 8.9375C23.9531 8.75 24 8.5625 24 8.375C24 6.54688 22.4531 5 20.625 5C20.1094 5 19.6406 5.14062 19.2188 5.32812ZM24 21.5H23.625H21.75H6.75C3 21.5 0 18.5 0 14.75C0 11.8438 1.875 9.3125 4.5 8.42188V8.375C4.5 4.0625 8.01562 0.5 12.375 0.5C14.7188 0.5 16.875 1.57812 18.3281 3.26562C19.0312 2.9375 19.7812 2.75 20.625 2.75C23.7188 2.75 26.25 5.28125 26.25 8.375C26.25 8.70312 26.2031 8.98438 26.1562 9.3125C28.4062 10.2969 30 12.5469 30 15.125C30 18.5469 27.3281 21.3125 24 21.5Z"
    fill="#CC4141"
  />
</svg>
