<?xml version="1.0" encoding="UTF-8" standalone="no"?>
<svg
  width="23"
  height="23"
  viewBox="0 0 23 23"
  fill="none"
  xmlns="http://www.w3.org/2000/svg"
>
  <path
    d="M11.3135 1.94916C16.4862 1.94916 20.6777 6.16477 20.6777 11.3628C20.6777 13.43 20.0147 15.3419 18.8907 16.8951L20.9713 18.993C21.5305 19.5569 21.5295 20.4665 20.969 21.0292C20.413 21.5874 19.5098 21.5891 18.9516 21.0331L18.9454 21.0269L16.8739 18.9379C15.3191 20.0932 13.3958 20.7764 11.3135 20.7764C6.14074 20.7764 1.94922 16.5608 1.94922 11.3628C1.94922 6.16477 6.14074 1.94916 11.3135 1.94916ZM11.3135 3.5028C7.00079 3.5028 3.50287 7.02083 3.50287 11.3628C3.50287 15.7047 7.00079 19.2227 11.3135 19.2227C15.6261 19.2227 19.1241 15.7047 19.1241 11.3628C19.1241 7.02083 15.6261 3.5028 11.3135 3.5028Z"
    fill="#CA4241"
  />
  <path
    d="M11.0161 14.3787L10.9696 14.37C10.7168 14.3226 10.5474 14.0626 10.5912 13.7894L11.3855 8.83917C11.4293 8.56596 11.6699 8.38282 11.9227 8.43019L11.9692 8.4389C12.222 8.48627 12.3914 8.74626 12.3476 9.01947L11.5533 13.9697C11.5096 14.2431 11.269 14.4263 11.0161 14.3787ZM14.2124 13.9796C14.0872 13.9798 13.9674 13.9252 13.88 13.8284C13.7006 13.6301 13.7039 13.3122 13.8874 13.1183L15.3518 11.5713L13.9881 10.195C13.8005 10.0057 13.7904 9.68793 13.9656 9.4852C14.1408 9.28247 14.4348 9.27159 14.6224 9.46092L16.3418 11.1959C16.4345 11.2895 16.4878 11.4201 16.4892 11.5572C16.4906 11.6943 16.4401 11.8262 16.3494 11.9222L14.5371 13.8366C14.4469 13.9321 14.3296 13.9796 14.2124 13.9796ZM8.62834 13.9796C8.51124 13.9796 8.39398 13.9321 8.30352 13.8365L6.49122 11.922C6.40045 11.8261 6.34992 11.6942 6.35135 11.557C6.35275 11.4199 6.40603 11.2894 6.49881 11.1958L8.21817 9.46076C8.40575 9.27142 8.69975 9.2823 8.87494 9.48503C9.05013 9.68776 9.04006 10.0055 8.85248 10.1948L7.48876 11.5711L8.95316 13.1181C9.13672 13.312 9.13997 13.6301 8.9606 13.8283C8.86967 13.9291 8.74901 13.9796 8.62834 13.9796Z"
    fill="#333333"
  />
</svg>
