<?xml version="1.0" encoding="UTF-8" standalone="no"?>
<svg
  width="22"
  height="24"
  viewBox="0 0 22 24"
  fill="none"
  xmlns="http://www.w3.org/2000/svg"
>
  <path
    d="M19.25 4.03125H19.2031C18.9688 3.79688 18.4531 3.51562 17.6562 3.23438C16.0625 2.67188 13.6719 2.25 11 2.25C8.28125 2.25 5.89062 2.67188 4.29688 3.23438C3.5 3.51562 2.98438 3.79688 2.75 4.03125V8.20312C3.35938 8.53125 4.20312 8.85938 5.28125 9.14062C6.875 9.51562 8.84375 9.75 11 9.75C13.1094 9.75 15.0781 9.51562 16.6719 9.14062C17.75 8.85938 18.5938 8.53125 19.25 8.20312V4.03125ZM19.25 10.6875C18.5938 10.9219 17.9375 11.1562 17.1875 11.3438C15.4062 11.7656 13.25 12 11 12C8.70312 12 6.54688 11.7656 4.76562 11.3438C4.01562 11.1562 3.35938 10.9219 2.75 10.6875V14.2031C3.35938 14.5312 4.20312 14.8594 5.28125 15.1406C6.875 15.5156 8.84375 15.75 11 15.75C13.1094 15.75 15.0781 15.5156 16.6719 15.1406C17.75 14.8594 18.5938 14.5312 19.25 14.2031V10.6875ZM2.75 19.9688V20.0156C3.03125 20.2031 3.5 20.5312 4.29688 20.8125C5.89062 21.375 8.28125 21.75 11 21.75C13.6719 21.75 16.0625 21.375 17.6562 20.8125C18.4531 20.5312 18.9688 20.2031 19.2031 20.0156L19.25 19.9688V16.6875C18.5938 16.9219 17.9375 17.1562 17.1875 17.3438C15.4062 17.7656 13.25 18 11 18C8.70312 18 6.54688 17.7656 4.76562 17.3438C4.01562 17.1562 3.35938 16.9219 2.75 16.6875V19.9688ZM19.3438 19.875L19.2969 19.9219C19.3438 19.875 19.3438 19.875 19.3438 19.875ZM2.65625 19.875C2.60938 19.875 2.65625 19.875 2.65625 19.875V19.9219C2.65625 19.9219 2.65625 19.9219 2.65625 19.875ZM2.65625 4.17188C2.60938 4.125 2.65625 4.125 2.65625 4.125C2.65625 4.17188 2.65625 4.17188 2.65625 4.17188C2.65625 4.17188 2.65625 4.17188 2.60938 4.17188C2.60938 4.17188 2.60938 4.17188 2.65625 4.17188ZM19.3438 4.125V4.17188C19.3438 4.17188 19.3438 4.17188 19.2969 4.17188C19.2969 4.125 19.2969 4.125 19.3438 4.125ZM21.5 20.25C21.5 22.3594 16.7656 24 11 24C5.1875 24 0.5 22.3594 0.5 20.25V3.75C0.5 1.6875 5.1875 0 11 0C16.7656 0 21.5 1.6875 21.5 3.75V20.25Z"
    fill="#CC4141"
  />
</svg>
