<?xml version="1.0" encoding="utf-8"?>
<!-- Generator: Adobe Illustrator 28.0.0, SVG Export Plug-In . SVG Version: 6.00 Build 0)  -->
<svg version="1.1" id="Layer_2_00000125561071536974011200000014365379879226914469_"
	 xmlns="http://www.w3.org/2000/svg" xmlns:xlink="http://www.w3.org/1999/xlink" x="0px" y="0px" viewBox="0 0 52 42.4"
	 style="enable-background:new 0 0 52 42.4;" xml:space="preserve">
<style type="text/css">
	.st0{clip-path:url(#SVGID_00000159441228504587268800000001620570638762002363_);}
	.st1{fill:#CC4141;}
	.st2{fill:#333333;}
</style>
<g id="Layer_1-2">
	<g>
		<defs>
			<rect id="SVGID_1_" x="-29.1" y="-1.3" width="101.5" height="43"/>
		</defs>
		<clipPath id="SVGID_00000112590027772595423580000002916831806825674377_">
			<use xlink:href="#SVGID_1_"  style="overflow:visible;"/>
		</clipPath>
		<g style="clip-path:url(#SVGID_00000112590027772595423580000002916831806825674377_);">
			<g>
				<path class="st1" d="M0.5,34.6c-0.4-2.8-0.2-5.5,0.4-8.2C1.6,23.5,2.5,20.6,4,18c0.9-1.5,1.9-3.1,2.9-4.5
					c0.8-1.2,1.7-2.2,2.7-3.3C10.3,9.4,11.1,8.7,12,8c0.7-0.6,1.4-1.2,2.2-1.7C15,5.6,16,5,16.9,4.5c1-0.6,2.1-1.1,3.2-1.6
					c1.7-0.7,3.4-1.2,5.2-1.7c2.7-0.7,5.5-0.9,8.3-0.9c0.8,0,1.5,0.1,2.3,0.2C29.8,1.4,24.5,4,20,8.2c0,0.1,0.1,0.2,0.1,0.3
					c0.7-0.3,1.3-0.6,2-0.9c0.6-0.3,1.2-0.5,1.7-0.7c0.6-0.3,1.3-0.5,1.9-0.7c1.1-0.4,2.3-0.9,3.4-1.2c1.3-0.4,2.7-0.7,4.1-0.9
					c1.4-0.3,2.8-0.5,4.2-0.6c2.5-0.3,4.9-0.1,7.3,0.4c2.2,0.5,4.3,1.2,6.3,2.2c0.1,0,0.1,0.1,0.2,0.1s0.1,0.1,0.2,0.3
					c-0.6,0-1.1,0-1.6,0c-3.2,0.1-6.3,0.4-9.4,1c-2.2,0.4-4.4,1-6.6,1.5c-1.5,0.4-2.9,0.8-4.4,1.3c-1.1,0.4-2.1,0.8-3.2,1.3
					c-1.1,0.5-2.1,0.9-3.2,1.4c-0.5,0.2-0.9,0.5-1.4,0.7c-0.7,0.4-1.4,0.8-2.1,1.2c-1.7,1.1-3.3,2.2-5,3.4c-0.9,0.7-1.8,1.4-2.7,2.2
					c-1,0.9-2.1,1.9-3,2.9C8,24.4,7,25.6,5.9,26.8C5,27.9,4.1,29,3.3,30.2c-0.9,1.3-1.8,2.8-2.7,4.2C0.6,34.4,0.5,34.4,0.5,34.6
					L0.5,34.6z"/>
				<path class="st2" d="M6,33.2c2.6,5,7.9,8.5,14.1,8.5c8.7,0,15.7-6.8,15.7-15.3c0-5.1-2.6-9.6-6.5-12.3c0,0,0,0,0,0
					c-1.1,0.5-2.1,0.9-3.2,1.4c-0.4,0.2-0.9,0.4-1.3,0.7h0c0,0-0.2,0.1-0.3,0.2c-0.6,0.4-1.2,0.7-1.8,1.1c-0.8,0.5-1.6,1-2.3,1.6
					c4.1,0.1,7.4,3.4,7.4,7.4s-3.4,7.4-7.6,7.4s-7.6-3.3-7.6-7.4c0-0.4,0-0.8,0.1-1.2c-0.2,0.2-0.4,0.4-0.6,0.6
					c-1.1,1.2-2.1,2.3-3.1,3.6c-0.9,1.1-1.8,2.2-2.6,3.4C6.1,32.9,6.1,33,6,33.2L6,33.2z"/>
			</g>
		</g>
	</g>
</g>
</svg>
