<?xml version="1.0" encoding="UTF-8"?>
<svg width="88px" height="127px" viewBox="0 0 88 127" version="1.1" xmlns="http://www.w3.org/2000/svg" xmlns:xlink="http://www.w3.org/1999/xlink">
    <title>g20 Clipped</title>
    <g id="Page-1" stroke="none" stroke-width="1" fill="none" fill-rule="evenodd">
        <g id="FireBootCamp-Logo" transform="translate(0.505041, 0.006543)" fill="#CC4241">
            <g id="g8" transform="translate(43.333541, 63.146465) scale(-1, 1) rotate(-180.000000) translate(-43.333541, -63.146465) translate(0.000000, 0.000000)">
                <g id="g20" transform="translate(0.000000, -0.000000)">
                    <g id="g34" transform="translate(47.061076, 100.740505)">
                        <path d="M6.88054043,25.5524252 C6.84454044,25.4324252 6.8312071,25.3804252 6.81254044,25.3284252 C6.33254045,23.9390919 6.20187379,22.5070919 6.32454045,21.051092 C6.41520711,20.0177587 6.61654044,18.999092 6.89654043,17.999092 C7.20320709,16.8804254 7.53120709,15.7670921 7.84854041,14.6497588 C8.0965404,13.7870921 8.3085404,12.9137588 8.46720706,12.0257589 C8.63920706,11.0244256 8.69654039,10.0150922 8.62187372,8.99775894 C8.55654039,8.10842562 8.33787373,7.24709231 8.04987374,6.405759 C7.44720709,4.62042571 6.64987377,2.92042575 5.67520713,1.30842579 C5.4738738,0.977759136 5.24187381,0.66442581 5.01520715,0.353759151 C4.92854048,0.235092488 4.81520715,0.136425823 4.70187382,0.0390924925 C4.63920716,-0.0222408393 4.55387383,-0.00757417302 4.48854049,0.0564258254 C4.4605405,0.0897591579 4.43120716,0.128425824 4.40320716,0.163092489 C3.54454052,1.26975913 2.72720721,2.40709243 2.01254056,3.61375907 C1.37520724,4.69509238 0.840540586,5.82575901 0.493873928,7.03509232 C0.224540601,7.97242563 0.0765406051,8.9244256 0.027207273,9.89509225 C-0.0354593921,11.0470922 0.0152072733,12.1964255 0.12720727,13.3404255 C0.319207266,15.2670921 0.895207251,17.0804254 1.78454056,18.7977587 C2.47520721,20.127092 3.31787386,21.3564253 4.24187383,22.5297586 C5.01520715,23.5177586 5.84054046,24.4577585 6.68587377,25.3830919 C6.72587377,25.4284252 6.7792071,25.4670919 6.88054043,25.5524252" id="path36"></path>
                    </g>
                    <g id="g38" fill-rule="nonzero">
                        <path d="M43.2644166,0 L38.8910834,0 C38.8030834,0.0773333314 38.6977501,0.0573333319 38.6004167,0.0573333319 C37.5510834,0.0839999979 36.5084168,0.174666662 35.4630835,0.267999993 C34.4644168,0.361333324 33.4710835,0.483999988 32.4817502,0.638666651 C30.9510836,0.877333311 29.4390836,1.19066664 27.9390837,1.58133329 C24.9070837,2.36799994 21.9964171,3.46399991 19.2364172,4.94799988 C15.699084,6.84933316 12.5884174,9.2893331 9.95908411,12.3346664 C8.06575082,14.5279996 6.51241753,16.9453329 5.26041756,19.5586662 C4.03508426,22.1239994 3.28441761,24.810666 3.12575095,27.6613326 C3.04441762,29.1586659 3.12575095,30.6439992 3.31641761,32.1279992 C3.47375094,33.3813325 3.7244176,34.6199991 4.01375092,35.8493324 C4.40308425,37.5133324 4.8617509,39.155999 5.31775089,40.8026656 C5.82041755,42.6239989 6.3190842,44.4453322 6.73508419,46.2893322 C6.88041752,46.9239988 6.95508418,47.5693321 6.94441752,48.2186655 C6.92975085,49.3826654 6.67375086,50.5 6.26041754,51.581332 C5.82441755,52.725332 5.23108423,53.7879987 4.56308424,54.8079986 C3.7644176,56.0213319 2.86708429,57.1519986 1.92841764,58.2546652 C1.33108433,58.9586652 0.71908434,59.6466652 0.115084355,60.3466652 C0.06841769,60.3986652 -0.00624897481,60.4413318 0,60.5279985 C0.0230843578,60.5319985 0.0364176908,60.5399985 0.0457510239,60.5386652 C0.153751021,60.5079985 0.264417685,60.4746652 0.371084349,60.4399985 C3.00308428,59.5053318 5.41108422,58.1719985 7.5724175,56.4013319 C8.51241748,55.6333319 9.36708412,54.7866653 10.1417508,53.8519987 C12.2937507,51.2453321 13.5137507,48.2519988 13.783084,44.8826655 C13.9297507,43.0439989 13.7884173,41.219999 13.423084,39.4133323 C13.2977507,38.7893324 13.1324174,38.171999 12.9884174,37.5519991 C12.9684174,37.4719991 12.9177507,37.3906657 12.975084,37.2799991 C13.043084,37.3359991 13.0964174,37.3706657 13.143084,37.4199991 C13.4617507,37.7759991 13.8004173,38.1146657 14.0964173,38.4893324 C15.8857506,40.767999 16.8430839,43.3719989 17.0844173,46.2506655 C17.2190839,47.8466655 17.1004173,49.4346654 16.7924173,51.0066654 C16.4684173,52.6679987 15.947084,54.2626653 15.2804173,55.8159986 C14.4697507,57.6946652 13.4764174,59.4719985 12.347084,61.1719985 C12.0150841,61.6666651 11.7137507,62.1746651 11.4377507,62.6973318 C10.5524174,64.3706651 9.81108411,66.1079983 9.22308413,67.9093316 C8.51375081,70.0826649 8.03775082,72.3013315 7.90841749,74.5906648 C7.82575083,76.1239981 7.90975083,77.6399981 8.20441749,79.1453314 C8.60175081,81.195998 9.38041746,83.0893313 10.5604174,84.8146645 C11.8124174,86.6439978 13.403084,88.1279978 15.227084,89.3679978 C15.247084,89.3879978 15.2857506,89.3839978 15.3164173,89.3893311 C15.319084,89.3679978 15.3257506,89.3599978 15.3204173,89.3519978 C15.2737506,89.2466644 15.2204173,89.1453311 15.175084,89.0413311 C14.3484173,87.3213312 13.8444173,85.5119979 13.6484174,83.6146646 C13.5257507,82.4293313 13.531084,81.2493313 13.679084,80.0693313 C13.875084,78.4746647 14.3164173,76.9493314 14.9897507,75.4906648 C15.927084,73.4493315 17.2337506,71.6679982 18.7990839,70.0666649 C20.1670839,68.666665 21.6817505,67.4559983 23.2964171,66.354665 C25.4630837,64.8719984 27.308417,63.0599984 28.820417,60.9173318 C29.7924169,59.5373318 30.5470836,58.0519985 30.9857503,56.4159986 C31.0030836,56.3439986 31.0350836,56.2759986 31.0577502,56.2066653 C31.1310836,56.4586653 31.1564169,56.7039986 31.2070836,56.9506652 C31.3430836,57.5733319 31.4750836,58.1946652 31.6204169,58.8133319 C31.9110836,60.0693318 32.2097502,61.3186651 32.3070836,62.6093318 C32.3470835,63.1359984 32.3350835,63.6573317 32.2457502,64.1746651 C32.0670836,65.2199984 31.8297502,66.250665 31.5510836,67.2719983 C30.9030836,69.6546649 29.9884169,71.9359982 28.8910836,74.1386648 C28.2150837,75.4946648 27.5030837,76.8319981 26.8030837,78.1746647 C26.0617504,79.5973313 25.3377504,81.027998 24.7190837,82.5146646 C23.6630838,85.0466645 23.0150838,87.6759978 22.8550838,90.4186644 C22.7657505,91.9946644 22.8497505,93.5626643 23.1270838,95.1159976 C23.5070838,97.2506642 24.2124171,99.2746642 25.2417504,101.185331 C26.5497504,103.606664 28.2630837,105.703997 30.3070836,107.538664 C33.2790835,110.217331 36.6910834,112.167997 40.4044167,113.61733 C40.4444167,113.631997 40.4910833,113.663997 40.5390833,113.599997 C40.4990833,113.51733 40.4524167,113.42533 40.4070833,113.33733 C40.0910834,112.705331 39.7590834,112.082664 39.4630834,111.441331 C38.4297501,109.175997 37.7590834,106.807997 37.5350834,104.325331 C37.4084168,102.958664 37.4377501,101.593331 37.6044168,100.231997 C37.7564167,98.9733309 38.0190834,97.7426642 38.3844167,96.5279976 C38.9404167,94.6666643 39.7044167,92.893331 40.60175,91.1746644 C41.6270833,89.2133311 42.8164166,87.3506645 44.0844166,85.5399979 C45.4110832,83.6439979 46.8270832,81.8146646 48.2457498,79.9933313 C49.6564165,78.1853314 51.1844164,76.4813314 52.8257497,74.8799981 C53.623083,74.0973315 54.415083,73.3119982 55.2084163,72.5279982 C57.6084163,70.1626649 59.5284162,67.4479983 61.0390828,64.4439984 C62.7644161,61.0133318 63.7350828,57.3706652 63.9844161,53.5386653 C64.0830828,51.9759987 64.0390828,50.4199987 63.8404161,48.8679988 C63.6644161,47.4533321 63.3270828,46.0719988 62.8684161,44.7213322 C62.8457495,44.6573322 62.8124161,44.5973322 62.7817495,44.5373322 C62.7897495,44.5293322 62.7964161,44.5266656 62.7964161,44.5186656 C62.7964161,44.5119989 62.7924161,44.5039989 62.7924161,44.4973322 C62.7897495,44.5119989 62.7897495,44.5266656 62.7897495,44.5399989 C62.8270828,44.5759989 62.8870828,44.5973322 62.9097495,44.6413322 C62.9777495,44.7733322 63.0350828,44.9093322 63.0977494,45.0466655 C63.8910828,46.9013322 64.5430827,48.8053321 65.0737494,50.7506654 C65.5804161,52.6079987 65.9630827,54.4906653 66.220416,56.4013319 C66.3710827,57.5079986 66.468416,58.6173319 66.532416,59.7319985 C66.6257494,61.4399985 66.6137494,63.1453318 66.4937494,64.8519984 C66.4030827,66.1013317 66.2537494,67.3439983 66.044416,68.5813316 C65.6897494,70.6719982 65.1750827,72.7226648 64.4964161,74.7306648 C63.3404161,78.1453314 61.7537495,81.3533313 59.7924162,84.3719979 C59.3670829,85.0306645 58.9070829,85.6719979 58.4644162,86.3226645 C58.4337496,86.3693312 58.3577496,86.4159978 58.4204162,86.5066645 C58.4884162,86.4653312 58.5537496,86.4253312 58.6177496,86.3799978 C59.0604162,86.0373312 59.5004162,85.7026645 59.9350829,85.3519979 C63.2137494,82.6986646 66.196416,79.7493313 68.8990826,76.5133314 C71.2764159,73.6653315 73.3830825,70.6279982 75.1404158,67.3573316 C76.5924158,64.6626651 77.7737491,61.8559985 78.6257491,58.9146652 C79.1870824,56.9893319 79.593749,55.0279986 79.837749,53.0346653 C79.9590824,52.0279987 80.0470824,51.0226654 80.0804157,50.0079987 C80.1510824,47.9426655 80.0550824,45.8879989 79.7710824,43.8413322 C79.5630824,42.3733323 79.273749,40.923999 78.8977491,39.491999 C78.1070824,36.4826658 76.9670824,33.6146658 75.5470825,30.8519992 C74.9524158,29.6959993 74.3070825,28.570666 73.6324159,27.4613326 C73.5684159,27.3599993 73.4684159,27.2679993 73.4790825,27.1293327 C73.4564159,27.1133327 73.4350825,27.0973327 73.4137492,27.082666 C73.4270825,27.0733327 73.4430825,27.0653327 73.4537492,27.054666 C73.4590825,27.082666 73.4657492,27.1093327 73.4684159,27.1359993 C73.6204159,27.138666 73.6670825,27.2733327 73.7470825,27.3613326 C74.9644158,28.7159993 76.1084158,30.1359992 77.1950824,31.5973325 C79.457749,34.6359991 81.4630823,37.8306657 83.1604156,41.219999 C84.5297489,43.9666656 85.6724155,46.7999988 86.4884155,49.7599988 C86.5070822,49.8279988 86.4964155,49.9199988 86.5870822,49.9599988 C86.6137489,49.9359988 86.6417489,49.9146654 86.6670822,49.8919988 L86.6670822,44.4226656 C86.5870822,44.3133322 86.6004155,44.1853322 86.6004155,44.0613322 C86.5897489,43.1386656 86.4750822,42.2226656 86.3657489,41.3053323 C86.2164155,40.039999 86.0190822,38.7813324 85.7844155,37.5279991 C85.3617489,35.2453325 84.8217489,32.9839992 84.1590823,30.7586659 C83.3804156,28.1639993 82.4524156,25.6199994 81.4190823,23.1119994 C80.6604157,21.2679995 79.8044157,19.4719995 78.8017491,17.7479996 C77.5390824,15.5679996 76.0417491,13.5679997 74.2644158,11.7839997 C72.7630825,10.2759997 71.1084159,8.95599978 69.328416,7.79733314 C66.4097494,5.89466652 63.2937494,4.36666656 60.0350829,3.13733325 C57.8937496,2.32799994 55.687083,1.72133329 53.4484164,1.2453333 C52.2457497,0.991999975 51.0350831,0.767999981 49.8204164,0.610666651 C49.0390831,0.509333321 48.2590832,0.41199999 47.4790832,0.330666658 C46.7537499,0.253333327 46.0270832,0.195999995 45.3017499,0.143999996 C44.7217499,0.103999997 44.1417499,0.0839999979 43.5657499,0.0573333319 C43.4604166,0.0493333321 43.3617499,0.0159999996 43.2644166,0" id="path40"></path>
                    </g>
                    <g id="g42" transform="translate(58.856714, 91.774398)">
                        <path d="M1.35050202,16.9026662 C1.38516868,16.8759996 1.42250202,16.8533329 1.45316868,16.8226662 C2.42916866,15.8333329 3.38116863,14.8199996 4.19450195,13.6839997 C4.89716859,12.6959997 5.47316858,11.6399997 5.82250191,10.4719997 C6.0385019,9.75999976 6.1625019,9.03333311 6.2025019,8.29066646 C6.23316856,7.72133314 6.25316856,7.15466649 6.2225019,6.5826665 C6.1625019,5.35199987 5.80916857,4.21199989 5.21850192,3.13866659 C4.89450193,2.54933327 4.52250194,1.98933328 4.11583528,1.4533333 C3.79050196,1.02799997 3.45050196,0.614666651 3.11716864,0.195999995 C3.06516864,0.134666663 3.01850198,0.0733333315 2.95850198,0 C2.86916865,0.0613333318 2.79183531,0.093333331 2.74250198,0.14933333 C2.62516865,0.269333327 2.50783532,0.39599999 2.40783532,0.534666653 C1.46116868,1.87466662 0.721168699,3.31866658 0.242502045,4.88799988 C-0.00149794927,5.68133319 -0.0481646148,6.49599984 0.0438353829,7.32133315 C0.141168714,8.22133313 0.381168708,9.08533311 0.643835368,9.94666642 C0.895835362,10.7746664 1.16516869,11.597333 1.39316868,12.4306664 C1.59983534,13.1559997 1.71183534,13.8986663 1.71450201,14.6546663 C1.71450201,15.3466663 1.60783534,16.0146663 1.38250202,16.6666662 C1.35983535,16.7319996 1.33983535,16.7959996 1.32250202,16.8613329 C1.32250202,16.8706662 1.33716868,16.8799996 1.35050202,16.9026662" id="path44"></path>
                    </g>
                </g>
            </g>
        </g>
    </g>
</svg>