<?xml version="1.0" encoding="UTF-8" standalone="no"?>
<svg
  width="21"
  height="21"
  viewBox="0 0 21 21"
  fill="none"
  xmlns="http://www.w3.org/2000/svg"
>
  <path
    d="M11.6697 7.94017C11.9096 7.92173 12.1337 8.00464 12.2986 8.15234C12.434 8.25732 12.5631 8.37034 12.6853 8.49032C14.3568 10.1362 14.4375 12.7786 12.8695 14.5204C12.8453 14.5508 12.8193 14.5798 12.7917 14.6073L12.6853 14.712L8.61193 18.7224C8.60965 18.7272 8.60676 18.7318 8.60334 18.736C8.59556 18.7452 8.58727 18.754 8.57852 18.7623C6.83321 20.4804 4.00351 20.4804 2.2582 18.7623C0.512892 17.0442 0.512892 14.2587 2.2582 12.5406L2.28254 12.5161L2.29686 12.502L4.23527 10.5931C4.3748 10.4241 4.58168 10.3095 4.81964 10.2911C5.15738 10.265 5.47786 10.4417 5.63164 10.7388C5.78542 11.036 5.74221 11.3951 5.52216 11.6486C5.51338 11.6588 5.50439 11.6686 5.4952 11.6782L5.50021 11.6832L3.53391 13.6188C3.50002 13.6465 3.469 13.6752 3.43846 13.7052C2.73307 14.3996 2.45758 15.4117 2.71577 16.3603C2.97396 17.3088 3.7266 18.0497 4.69019 18.3039C5.65377 18.558 6.68189 18.2869 7.38728 17.5925C7.41115 17.5666 7.43644 17.5441 7.45887 17.5196L11.5203 13.522C12.5909 12.4461 12.5817 10.7222 11.4998 9.65733C11.4087 9.56622 11.3108 9.48204 11.2068 9.40551C11.0357 9.26585 10.9186 9.06165 10.8999 8.8267C10.8825 8.60864 10.9539 8.39271 11.0982 8.22644C11.2426 8.06017 11.4482 7.95719 11.6697 7.94017Z"
    fill="#333333"
  />
  <path
    d="M12.6222 2.05282C14.3909 0.513408 17.0725 0.593678 18.7427 2.23603C20.4129 3.87838 20.4946 6.51533 18.9291 8.25454C18.9049 8.28491 18.8789 8.31389 18.8513 8.34132L18.7449 8.44592L16.7417 10.4164C16.5205 10.6443 16.1847 10.7289 15.8775 10.6307C15.5555 10.5278 15.3282 10.2442 15.3017 9.91227C15.2816 9.66055 15.3788 9.4264 15.5483 9.26184L17.581 7.2615C18.6269 6.18695 18.6114 4.48851 17.546 3.43261C16.4806 2.37671 14.7535 2.34811 13.6526 3.36813L9.5954 7.35766C9.56153 7.38627 9.53052 7.41442 9.49999 7.44444C8.4107 8.51645 8.4107 10.2536 9.49999 11.3256C9.60432 11.4265 9.71307 11.5166 9.79585 11.5836C9.80966 11.5928 9.82304 11.6034 9.8361 11.6144L9.87256 11.6455C9.93784 11.709 9.99386 11.7825 10.0368 11.8655C10.1906 12.1622 10.1474 12.5207 9.92742 12.7739C9.70747 13.0271 9.35409 13.125 9.03205 13.0221C8.92524 12.988 8.82885 12.9339 8.74676 12.8649C8.59502 12.7489 8.45069 12.6235 8.31456 12.4899C6.57028 10.7744 6.57028 7.99332 8.31456 6.27783L8.33937 6.25391L8.35368 6.23984L12.5339 2.12928C12.5609 2.10115 12.5904 2.07556 12.6222 2.05282Z"
    fill="#CC4141"
  />
</svg>
