<?xml version="1.0" encoding="UTF-8" standalone="no"?>
<svg
  width="18"
  height="25"
  viewBox="0 0 18 25"
  fill="none"
  xmlns="http://www.w3.org/2000/svg"
>
  <path
    d="M3.75 2.75C3.32812 2.75 3 3.125 3 3.5V21.5C3 21.9219 3.32812 22.25 3.75 22.25H14.25C14.625 22.25 15 21.9219 15 21.5V3.5C15 3.125 14.625 2.75 14.25 2.75H3.75ZM0.75 3.5C0.75 1.85938 2.0625 0.5 3.75 0.5H14.25C15.8906 0.5 17.25 1.85938 17.25 3.5V21.5C17.25 23.1875 15.8906 24.5 14.25 24.5H3.75C2.0625 24.5 0.75 23.1875 0.75 21.5V3.5ZM7.5 19.25H10.5C10.875 19.25 11.25 19.625 11.25 20C11.25 20.4219 10.875 20.75 10.5 20.75H7.5C7.07812 20.75 6.75 20.4219 6.75 20C6.75 19.625 7.07812 19.25 7.5 19.25Z"
    fill="#CC4141"
  />
</svg>
