<?xml version="1.0" encoding="UTF-8" standalone="no"?>
<svg
  width="18"
  height="10"
  viewBox="0 0 18 10"
  fill="none"
  xmlns="http://www.w3.org/2000/svg"
>
  <path
    d="M15 2C15 1.20312 15.6562 0.5 16.5 0.5C17.2969 0.5 18 1.20312 18 2C18 2.84375 17.2969 3.5 16.5 3.5C15.6562 3.5 15 2.84375 15 2ZM7.5 2C7.5 1.20312 8.15625 0.5 9 0.5C9.79688 0.5 10.5 1.20312 10.5 2C10.5 2.84375 9.79688 3.5 9 3.5C8.15625 3.5 7.5 2.84375 7.5 2ZM1.5 3.5C0.65625 3.5 0 2.84375 0 2C0 1.20312 0.65625 0.5 1.5 0.5C2.29688 0.5 3 1.20312 3 2C3 2.84375 2.29688 3.5 1.5 3.5ZM15 8C15 7.20312 15.6562 6.5 16.5 6.5C17.2969 6.5 18 7.20312 18 8C18 8.84375 17.2969 9.5 16.5 9.5C15.6562 9.5 15 8.84375 15 8ZM9 9.5C8.15625 9.5 7.5 8.84375 7.5 8C7.5 7.20312 8.15625 6.5 9 6.5C9.79688 6.5 10.5 7.20312 10.5 8C10.5 8.84375 9.79688 9.5 9 9.5ZM0 8C0 7.20312 0.65625 6.5 1.5 6.5C2.29688 6.5 3 7.20312 3 8C3 8.84375 2.29688 9.5 1.5 9.5C0.65625 9.5 0 8.84375 0 8Z"
    fill="#CC4141"
  />
</svg>
