<?xml version="1.0" encoding="UTF-8" standalone="no"?>
<svg
  width="22"
  height="22"
  viewBox="0 0 22 22"
  fill="none"
  xmlns="http://www.w3.org/2000/svg"
>
  <path
    d="M18.5 2.75H12.125V9.875H19.25V3.5C19.25 3.125 18.875 2.75 18.5 2.75ZM19.25 12.125H12.125V19.25H18.5C18.875 19.25 19.25 18.9219 19.25 18.5V12.125ZM9.875 9.875V2.75H3.5C3.07812 2.75 2.75 3.125 2.75 3.5V9.875H9.875ZM2.75 12.125V18.5C2.75 18.9219 3.07812 19.25 3.5 19.25H9.875V12.125H2.75ZM3.5 0.5H18.5C20.1406 0.5 21.5 1.85938 21.5 3.5V18.5C21.5 20.1875 20.1406 21.5 18.5 21.5H3.5C1.8125 21.5 0.5 20.1875 0.5 18.5V3.5C0.5 1.85938 1.8125 0.5 3.5 0.5Z"
    fill="#CC4141"
  />
</svg>
