<?xml version="1.0" encoding="UTF-8" standalone="no"?>
<svg
  width="23"
  height="23"
  viewBox="0 0 23 23"
  fill="none"
  xmlns="http://www.w3.org/2000/svg"
>
  <path
    d="M9.80293 1.99506C10.2089 2.06197 10.5472 2.12887 10.9532 2.19578C12.4418 2.46342 13.6597 3.26633 14.8099 4.20307C15.9602 5.1398 16.9751 6.21035 17.9901 7.21399C18.3284 7.54854 18.3284 7.94999 17.9901 8.28454C17.8547 8.48527 17.6518 8.61909 17.4488 8.81981C17.7871 9.15436 18.1254 9.48891 18.5314 9.89036C18.599 9.82345 18.6667 9.68964 18.7343 9.62273C19.0727 9.35509 19.411 9.28818 19.7493 9.62273C20.2229 10.0911 20.7642 10.5595 21.2379 11.0947C21.5085 11.3624 21.5085 11.7638 21.2379 12.0315C20.4936 12.7675 19.7493 13.5704 18.9373 14.3064C18.6667 14.574 18.2607 14.574 17.9224 14.3064C17.4488 13.838 16.9751 13.3697 16.4338 12.9013C16.1632 12.6336 16.1632 12.2991 16.3662 11.9646C16.4338 11.8307 16.5692 11.7638 16.6368 11.6969C16.2985 11.3624 15.9602 11.0278 15.5542 10.6264C15.4866 10.6933 15.3512 10.894 15.2836 10.9609C14.9453 11.2955 14.5393 11.2955 14.1333 10.9609C13.389 10.2918 12.7124 9.55582 12.0358 8.88672C11.9681 8.81981 11.9681 8.75291 11.9681 8.686C12.2388 7.54854 11.9681 6.47799 11.4268 5.40744C11.0208 4.53761 10.3442 3.93543 9.46462 3.46706C8.58501 2.9987 7.63774 2.66415 6.6228 2.39651C6.89345 2.3296 7.1641 2.26269 7.43475 2.19578C7.7054 2.12887 7.97605 2.12887 8.31436 2.06197C8.85566 1.99506 9.32929 1.99506 9.80293 1.99506Z"
    fill="#CC4141"
  />
  <path
    d="M10.5916 9.60704C10.9479 9.25072 11.5256 9.25072 11.882 9.60704L13.4949 11.2199C13.8512 11.5763 13.8512 12.154 13.4949 12.5103L5.10773 20.8974C4.75142 21.2537 4.17372 21.2537 3.8174 20.8974L2.20449 19.2845C1.84818 18.9282 1.84818 18.3505 2.20449 17.9942L10.5916 9.60704ZM11.2368 10.2522L2.84966 18.6393L4.46257 20.2523L12.8497 11.8651L11.2368 10.2522Z"
    fill="#333333"
  />
</svg>
