<?xml version="1.0" encoding="UTF-8" standalone="no"?>
<svg
  width="17"
  height="23"
  viewBox="0 0 17 23"
  fill="none"
  xmlns="http://www.w3.org/2000/svg"
>
  <path
    d="M14.4126 0.844635C15.5608 0.844635 16.4917 1.77548 16.4917 2.92373V20.0763C16.4917 21.2245 15.5608 22.1554 14.4126 22.1554H2.97753C1.82928 22.1554 0.898438 21.2245 0.898438 20.0763V2.92373C0.898438 1.77548 1.82928 0.844635 2.97753 0.844635H14.4126ZM14.9323 19.0367H2.45776V20.0763C2.45776 20.3428 2.65841 20.5625 2.91692 20.5926L2.97753 20.596H14.4126C14.6791 20.596 14.8988 20.3954 14.9288 20.1369L14.9323 20.0763V19.0367ZM14.4126 2.40396H2.97753C2.71097 2.40396 2.49128 2.60461 2.46126 2.86311L2.45776 2.92373V17.4774H14.9323V2.92373C14.9323 2.65717 14.7317 2.43748 14.4732 2.40745L14.4126 2.40396Z"
    fill="#444445"
  />
  <path
    d="M8.69481 7.08185C9.0844 7.08185 9.42144 7.17055 9.58302 7.29951L9.6602 7.29927C10.6739 7.29927 11.5629 7.8329 12.0618 8.63456L12.0609 7.96462C11.9255 7.8918 11.8333 7.74672 11.8333 7.57963C11.8333 7.33947 12.0239 7.14479 12.259 7.14479C12.4941 7.14479 12.6847 7.33947 12.6847 7.57963C12.6847 7.74672 12.5924 7.8918 12.4571 7.96462L12.4573 8.95816C12.6937 9.16531 12.853 9.55491 12.853 10.0014C12.853 10.544 12.6177 11.0027 12.2946 11.1518C11.8839 12.2056 10.8592 12.9522 9.6602 12.9522H7.78882C6.59966 12.9522 5.58202 12.2179 5.16466 11.1779C4.80655 11.0674 4.53662 10.5826 4.53662 10.0014C4.53662 9.55491 4.69592 9.16531 4.93236 8.95816L4.93253 7.96462C4.7972 7.8918 4.70493 7.74672 4.70493 7.57963C4.70493 7.33947 4.89553 7.14479 5.13065 7.14479C5.36577 7.14479 5.55637 7.33947 5.55637 7.57963C5.55637 7.74672 5.4641 7.8918 5.32877 7.96462L5.32831 8.73375C5.81393 7.87722 6.73388 7.29927 7.78882 7.29927L7.8066 7.29951C7.96819 7.17055 8.30522 7.08185 8.69481 7.08185ZM9.66238 8.14607H7.72725C6.62126 8.14607 5.72468 9.04265 5.72468 10.1486C5.72468 11.2546 6.62126 12.1512 7.72725 12.1512H9.66238C10.7684 12.1512 11.6649 11.2546 11.6649 10.1486C11.6649 9.04265 10.7684 8.14607 9.66238 8.14607Z"
    fill="#444445"
  />
  <path
    d="M8.71243 11.49C9.19543 11.49 9.58697 11.1797 9.58697 10.797C9.58697 10.4143 9.19543 10.496 8.71243 10.496C8.22944 10.496 7.83789 10.4143 7.83789 10.797C7.83789 11.1797 8.22944 11.49 8.71243 11.49Z"
    fill="#CC4141"
  />
  <path
    d="M7.11059 10.2755C7.39766 10.2755 7.63037 10.0428 7.63037 9.75571C7.63037 9.46864 7.39766 9.23593 7.11059 9.23593C6.82353 9.23593 6.59082 9.46864 6.59082 9.75571C6.59082 10.0428 6.82353 10.2755 7.11059 10.2755Z"
    fill="#333333"
  />
  <path
    d="M10.2791 10.2754C10.5661 10.2754 10.7988 10.0427 10.7988 9.75567C10.7988 9.46861 10.5661 9.2359 10.2791 9.2359C9.99199 9.2359 9.75928 9.46861 9.75928 9.75567C9.75928 10.0427 9.99199 10.2754 10.2791 10.2754Z"
    fill="#333333"
  />
</svg>
