<?xml version="1.0" encoding="UTF-8" standalone="no"?>
<svg
  width="23"
  height="17"
  viewBox="0 0 23 17"
  fill="none"
  xmlns="http://www.w3.org/2000/svg"
>
  <path
    d="M11.4387 0.898315C12.4583 0.898315 13.3405 1.12766 13.7641 1.46121L14.0504 1.4614C16.6661 1.4614 18.9614 2.83339 20.2559 4.897L20.2555 3.18472C19.9009 2.99621 19.659 2.62037 19.659 2.18749C19.659 1.56552 20.1583 1.06131 20.7741 1.06131C21.3899 1.06131 21.8892 1.56552 21.8892 2.18749C21.8892 2.62017 21.6476 2.99585 21.2932 3.18445L21.293 5.7573C21.9126 6.29367 22.33 7.30289 22.33 8.45948C22.33 9.86092 21.7171 11.046 20.8744 11.4356C19.8119 14.1663 17.1571 16.1017 14.0504 16.1017H8.98258C5.90284 16.1017 3.26731 14.1998 2.18642 11.5065C1.25068 11.2138 0.547363 9.96078 0.547363 8.45948C0.547363 7.30257 0.965019 6.29312 1.58484 5.75686L1.58468 3.18472C1.23003 2.99621 0.988202 2.62037 0.988202 2.18749C0.988202 1.56552 1.48743 1.06131 2.10327 1.06131C2.7191 1.06131 3.21833 1.56552 3.21833 2.18749C3.21833 2.62017 2.97674 2.99585 2.62236 3.18445L2.62221 5.15544C3.88299 2.94873 6.25909 1.4614 8.98258 1.4614L9.11327 1.46121C9.53691 1.12766 10.4191 0.898315 11.4387 0.898315ZM14.0319 3.65449H8.84551C5.98117 3.65449 3.65917 5.97649 3.65917 8.84083C3.65917 11.7052 5.98117 14.0272 8.84551 14.0272H14.0319C16.8962 14.0272 19.2182 11.7052 19.2182 8.84083C19.2182 5.97649 16.8962 3.65449 14.0319 3.65449Z"
    fill="#444445"
  />
  <path
    d="M11.483 12.3148C12.7481 12.3148 13.7737 11.5113 13.7737 10.5202C13.7737 9.529 12.7481 9.74059 11.483 9.74059C10.2179 9.74059 9.19238 9.529 9.19238 10.5202C9.19238 11.5113 10.2179 12.3148 11.483 12.3148Z"
    fill="#CC4141"
  />
  <path
    d="M7.28922 8.86052C7.86209 8.86052 8.32649 8.39612 8.32649 7.82325C8.32649 7.25038 7.86209 6.78598 7.28922 6.78598C6.71635 6.78598 6.25195 7.25038 6.25195 7.82325C6.25195 8.39612 6.71635 8.86052 7.28922 8.86052Z"
    fill="#333333"
  />
  <path
    d="M15.5876 8.86052C16.1604 8.86052 16.6248 8.39612 16.6248 7.82325C16.6248 7.25038 16.1604 6.78598 15.5876 6.78598C15.0147 6.78598 14.5503 7.25038 14.5503 7.82325C14.5503 8.39612 15.0147 8.86052 15.5876 8.86052Z"
    fill="#333333"
  />
</svg>
