<?xml version="1.0" encoding="UTF-8" standalone="no"?>
<svg
  width="23"
  height="16"
  viewBox="0 0 23 16"
  fill="none"
  xmlns="http://www.w3.org/2000/svg"
>
  <path
    d="M11.6901 8.06078C11.642 8.06078 11.642 8.06078 11.594 8.06078C11.5459 8.06078 11.5459 8.06078 11.4978 8.06078L0.582237 4.65702C0.437978 4.60908 0.389893 4.5132 0.389893 4.36938C0.389893 4.22556 0.486065 4.12968 0.582237 4.08174L11.4497 0.677979C11.4978 0.677979 11.4978 0.677979 11.5459 0.677979C11.594 0.677979 11.594 0.677979 11.642 0.677979L22.5095 4.08174C22.6538 4.12968 22.7018 4.22556 22.7018 4.36938C22.7018 4.5132 22.6057 4.60908 22.5095 4.65702L11.6901 8.06078ZM5.53511 7.48549L11.1131 9.25928C11.2574 9.30722 11.4016 9.30722 11.594 9.30722C11.7382 9.30722 11.8825 9.30722 12.0748 9.25928L17.6528 7.48549L17.8451 10.5537C17.9413 11.9439 15.0562 13.0466 11.642 13.0466C8.22793 13.0466 5.34276 11.9439 5.43893 10.5537L5.53511 7.48549Z"
    fill="#333333"
  />
  <path
    d="M18.0376 6.09514L10.8247 3.69813L11.9788 3.36255L19.3359 5.66368L18.0376 6.09514Z"
    fill="#CC4141"
  />
  <path
    d="M19.2392 5.61591C19.8643 6.47883 20.1529 7.67734 20.201 8.8279C20.5856 9.01966 20.8261 9.45113 20.8261 9.88259C20.8261 10.314 20.5856 10.6976 20.249 10.9373L20.8261 15.156C20.8261 15.2519 20.8261 15.3478 20.7299 15.3957C20.6818 15.4437 20.5856 15.4916 20.4895 15.4916H18.6141C18.5179 15.4916 18.4218 15.4437 18.3737 15.3957C18.3256 15.3478 18.2775 15.2519 18.2775 15.156L18.8545 10.9373C18.5179 10.6976 18.2775 10.314 18.2775 9.88259C18.2775 9.45113 18.5179 9.01966 18.9026 8.8279C18.8065 7.53352 18.4218 6.43089 17.8928 5.99943L19.2392 5.61591Z"
    fill="#CC4141"
  />
  <path
    d="M12.0268 4.60912C11.5459 4.60912 11.0651 4.41736 10.8727 4.08178C10.5842 3.55444 11.0651 2.93121 12.0268 2.93121C12.9885 2.93121 13.4694 3.55444 13.1808 4.08178C12.9885 4.41736 12.5076 4.60912 12.0268 4.60912Z"
    fill="#CC4141"
  />
</svg>
