<?xml version="1.0" encoding="UTF-8" standalone="no"?>
<svg
  width="23"
  height="23"
  viewBox="0 0 23 23"
  fill="none"
  xmlns="http://www.w3.org/2000/svg"
>
  <path
    d="M5.02484 11.6236H3.9707V12.6771H5.02484V11.6236Z"
    fill="#333333"
  />
  <path
    d="M16.8364 11.6236H15.7837V12.6771H16.8364V11.6236Z"
    fill="#333333"
  />
  <path
    d="M10.8756 17.7726H9.9353V18.7138H10.8756V17.7726Z"
    fill="#333333"
  />
  <path
    d="M10.934 5.58844H9.87842V6.64193H10.934V5.58844Z"
    fill="#333333"
  />
  <path
    d="M21.4444 2.84026L20.1641 1.5593L10.4136 11.3038L7.68654 8.5769L6.40479 9.85929L10.4136 13.8657L21.4444 2.84026Z"
    fill="#CC4141"
  />
  <path
    d="M17.2674 9.00061C17.7084 9.96027 17.9631 11.0237 17.9631 12.1497C17.9631 16.3196 14.5802 19.7019 10.4049 19.7019C6.23243 19.7019 2.84809 16.3196 2.84809 12.1497C2.84809 7.9784 6.23243 4.59755 10.4049 4.59755C11.7677 4.59755 13.0424 4.96293 14.1434 5.59275L15.3654 4.3715C13.9315 3.45591 12.2329 2.91992 10.4077 2.91992C5.30632 2.91992 1.16943 7.05286 1.16943 12.1497C1.16943 17.2466 5.30632 21.3795 10.4077 21.3795C15.5063 21.3795 19.6417 17.248 19.6417 12.1497C19.6417 10.5545 19.2363 9.05464 18.5236 7.74523L17.2674 9.00061Z"
    fill="#333333"
  />
</svg>
