<?xml version="1.0" encoding="UTF-8" standalone="no"?>
<svg
  width="25"
  height="25"
  viewBox="0 0 25 25"
  fill="none"
  xmlns="http://www.w3.org/2000/svg"
>
  <path
    d="M17.25 1.89062C18.2812 0.859375 19.9219 0.859375 20.9531 1.89062L23.1094 4.04688C24.1406 5.07812 24.1406 6.71875 23.1094 7.75L19.7812 11.0781L19.3125 11.5469L17.3906 18.5781C17.1562 19.375 16.5469 20.0781 15.75 20.3594L3.375 24.6719C2.48438 25 1.5 24.7656 0.890625 24.1094C0.234375 23.5 0 22.5156 0.328125 21.625L4.64062 9.25C4.92188 8.45312 5.625 7.84375 6.42188 7.60938L13.4531 5.6875L13.9219 5.21875L17.25 1.89062ZM13.875 7.89062L7.03125 9.76562C6.9375 9.8125 6.79688 9.90625 6.79688 10L2.90625 21.0156L7.6875 16.2344C7.54688 15.9531 7.5 15.625 7.5 15.25C7.5 14.0312 8.48438 13 9.75 13C10.9688 13 12 14.0312 12 15.25C12 16.5156 10.9688 17.5 9.75 17.5C9.375 17.5 9.04688 17.4531 8.76562 17.3125L3.98438 22.0938L15 18.2031C15.0938 18.1562 15.1875 18.0625 15.2344 17.9688L17.1094 11.125L13.875 7.89062Z"
    fill="#CC4141"
  />
</svg>
