<?xml version="1.0" encoding="UTF-8" standalone="no"?>
<svg
  width="28"
  height="18"
  viewBox="0 0 28 18"
  fill="none"
  xmlns="http://www.w3.org/2000/svg"
>
  <path
    d="M3.5 2.25C3.07812 2.25 2.75 2.625 2.75 3V15C2.75 15.4219 3.07812 15.75 3.5 15.75H15.5C15.875 15.75 16.25 15.4219 16.25 15V3C16.25 2.625 15.875 2.25 15.5 2.25H3.5ZM0.5 3C0.5 1.35938 1.8125 0 3.5 0H15.5C17.1406 0 18.5 1.35938 18.5 3V4.54688V13.4531V15C18.5 16.6875 17.1406 18 15.5 18H3.5C1.8125 18 0.5 16.6875 0.5 15V3ZM25.25 14.0625V3.98438L20 6.32812V3.89062L24.875 1.6875C25.1094 1.59375 25.3438 1.5 25.625 1.5C26.6562 1.5 27.5 2.34375 27.5 3.375V14.6719C27.5 15.7031 26.6562 16.5 25.625 16.5C25.3438 16.5 25.1094 16.4531 24.875 16.3594L20 14.1562V11.6719L25.25 14.0625Z"
    fill="#CC4141"
  />
</svg>
