<?xml version="1.0" encoding="UTF-8" standalone="no"?>
<svg
  width="24"
  height="22"
  viewBox="0 0 24 22"
  fill="none"
  xmlns="http://www.w3.org/2000/svg"
>
  <path
    d="M0 3.21875C0.046875 2.79688 0.140625 2.42188 0.328125 2.09375C0.609375 1.625 0.984375 1.20312 1.5 0.921875C1.82812 0.734375 2.25 0.59375 2.67188 0.546875C2.76562 0.546875 2.85938 0.5 3 0.5H21C22.6406 0.5 24 1.85938 24 3.5V6.5V18.5C24 20.1875 22.6406 21.5 21 21.5H3C1.3125 21.5 0 20.1875 0 18.5V6.5V3.5C0 3.40625 0 3.3125 0 3.21875ZM2.25 6.5V18.5C2.25 18.9219 2.57812 19.25 3 19.25H21C21.375 19.25 21.75 18.9219 21.75 18.5V6.5H2.25Z"
    fill="#CC4141"
  />
</svg>
