<?xml version="1.0" encoding="UTF-8"?>
<svg width="28px" height="22px" viewBox="0 0 28 22" version="1.1" xmlns="http://www.w3.org/2000/svg" xmlns:xlink="http://www.w3.org/1999/xlink">
    <title>YakShaver</title>
    <g id="Page-1" stroke="none" stroke-width="1" fill="none" fill-rule="evenodd">
        <g id="YakShaver" transform="translate(-0.000037, 0.000000)" fill="#CC4141" fill-rule="nonzero">
            <path d="M9.46643689,5.4007 C9.33023689,5.4205 9.19393689,5.4395 9.05783689,5.4584 L8.94653689,5.4739 C8.64893689,5.5162 8.35053689,5.557 8.05073689,5.5696 C7.75283689,5.5835 7.45403689,5.5809 7.15543689,5.5784 C7.06353689,5.5776 6.97163689,5.5768 6.87973689,5.5765 C6.16903689,5.5727 5.47083689,5.4666 4.78913689,5.2307 C4.18973689,5.0237 3.64233689,4.716 3.13523689,4.3008 C2.69573689,3.9402 2.33473689,3.5071 2.03283689,3.0349 C1.51243689,2.2187 1.16163689,1.3164 0.983236891,0.3483 C0.968436891,0.2711 0.941136891,0.1962 0.913736891,0.1211 C0.900136891,0.0837 0.886436891,0.0462 0.874336891,0.0085 C0.859336891,0.0052 0.843036891,0.0026 0.826736891,0 C0.801736891,0.0522 0.776136891,0.104 0.750536891,0.1558 C0.689236891,0.28 0.628036891,0.404 0.575336891,0.5317 C0.0538368913,1.7878 -0.102863109,3.1162 0.0636368913,4.4891 C0.112036891,4.9003 0.238336891,5.3068 0.363236891,5.7086 C0.380636891,5.7647 0.398036891,5.8208 0.415236891,5.8767 C0.546536891,6.3101 0.783936891,6.6847 1.02423689,7.0638 L1.06133689,7.1223 C1.46603689,7.7598 1.96203689,8.2947 2.51973689,8.7604 C2.93583689,9.1066 3.39233689,9.4001 3.84603689,9.6918 L3.99853689,9.7899 C4.59463689,10.1763 5.23573689,10.4618 5.88503689,10.7251 C5.97383689,10.7611 6.06273689,10.7965 6.15193689,10.8311 L6.15833689,14.8143 L8.39083689,13.0863 L10.4782369,19.9083 C10.5827369,20.25 10.8617369,20.51 11.2100369,20.5902 L14.3321369,21.3093 L17.4516369,20.5903 C17.7998369,20.51 18.0787369,20.2501 18.1833369,19.9084 L20.2622369,13.1141 L22.4573369,14.8143 L22.4641369,10.5805 C22.9933369,10.3559 23.5126369,10.1068 24.0015369,9.7899 L24.1540369,9.6918 C24.6077369,9.4001 25.0642369,9.1066 25.4803369,8.7604 C26.0380369,8.2947 26.5340369,7.7598 26.9387369,7.1223 L26.9757369,7.0638 C27.2161369,6.6847 27.4535369,6.3101 27.5848369,5.8767 C27.6020369,5.8208 27.6194369,5.7647 27.6368369,5.7086 L27.6368369,5.7085 C27.7617369,5.3068 27.8880369,4.9003 27.9363369,4.4891 C28.1029369,3.1162 27.9462369,1.7878 27.4247369,0.5317 C27.3720369,0.404 27.3108369,0.28 27.2495369,0.1559 L27.2494369,0.1556 L27.2493369,0.1554 C27.2238369,0.1037 27.1983369,0.052 27.1733369,0 C27.1570369,0.0026 27.1407369,0.0052 27.1257369,0.0085 C27.1136369,0.0462 27.1000369,0.0836 27.0864369,0.1209 L27.0863369,0.121 L27.0863369,0.1211 C27.0589369,0.1962 27.0316369,0.2711 27.0168369,0.3483 C26.8384369,1.3164 26.4876369,2.2187 25.9672369,3.0349 C25.6653369,3.5071 25.3043369,3.9402 24.8648369,4.3008 C24.3577369,4.716 23.8103369,5.0237 23.2109369,5.2307 C22.5292369,5.4666 21.8310369,5.5727 21.1203369,5.5765 C21.0284369,5.5768 20.9365369,5.5776 20.8446369,5.5784 C20.5459369,5.5809 20.2472369,5.5835 19.9493369,5.5696 C19.8968369,5.5674 19.8443369,5.5643 19.7919369,5.5605 L14.3321369,4.0954 L9.46643689,5.4007 Z" id="Path"></path>
        </g>
    </g>
</svg>